<svg id="Layer_1" data-name="Layer 1" xmlns="http://www.w3.org/2000/svg" width="230" height="135" viewBox="0 0 230 135"><defs><style>.cls-1{isolation:isolate;}.cls-2{fill:#fde358;}</style></defs><g id="EMS_PORT-_FOLIO" data-name="EMS PORT- FOLIO" class="cls-1"><g class="cls-1"><path class="cls-2" d="M31.2,48.43c1.13,0,1.69.44,1.69,1.33a1.28,1.28,0,0,1-.73,1.06,4.94,4.94,0,0,1-2.52.46H1.56V4.36H27.69l2.72-.1c1.65,0,2.48.49,2.48,1.46a1.54,1.54,0,0,1-.41,1,1.23,1.23,0,0,1-.95.48,9.16,9.16,0,0,1-1.82-.19,19.9,19.9,0,0,0-3.91-.3H18.47V16.86h6l4.08-.16a2.21,2.21,0,0,1,1.25.34,1.12,1.12,0,0,1,.51,1c0,.93-.62,1.39-1.86,1.39l-1.42,0c-.73-.06-1.34-.1-1.83-.1H18.47V48.86H25.8a20.11,20.11,0,0,0,3.48-.2A11.52,11.52,0,0,1,31.2,48.43Z"/><path class="cls-2" d="M36.64,51.22a1.65,1.65,0,0,1-.27-1.1A6.3,6.3,0,0,1,37,48.23c.31-.57.53-1,.68-1.29s.29-.61.44-1l1.26-2.92L53,2.24,67.68,30.56,81.91,2.24l17,49H81.11L72.89,26,60.15,52.48,46.76,28.6,42.11,43.09a29.64,29.64,0,0,0-1.56,4.11c-.31,1.13-.56,2-.76,2.62-.44,1.4-1.17,2-2.19,2A1.24,1.24,0,0,1,36.64,51.22Z"/><path class="cls-2" d="M105.55,48.89a12.86,12.86,0,0,1-2-1.39,2.06,2.06,0,0,1-.84-1.56c0-1.06.45-1.59,1.36-1.59a3.11,3.11,0,0,1,2,1,13.19,13.19,0,0,0,2.45,1.74,18.33,18.33,0,0,0,3,1.27,19.3,19.3,0,0,0,6.07,1.1,19,19,0,0,0,4.3-.37,8.67,8.67,0,0,0,2.53-1,4,4,0,0,0,2.19-3.48,5.83,5.83,0,0,0-1.89-3.95,44.11,44.11,0,0,0-4.51-4l-5.67-4.45q-8.52-6.57-10-12a15.75,15.75,0,0,1-.53-4.21,10.74,10.74,0,0,1,1-4.58A11.15,11.15,0,0,1,108,7.44q4.41-3.67,12-3.68a19.79,19.79,0,0,1,7,1.15,16.84,16.84,0,0,1,4.21,2c.75.59,1.12,1.13,1.12,1.62q0,1.53-1.26,1.53a2.46,2.46,0,0,1-1.55-.73,9.66,9.66,0,0,0-1.85-1.28,14.07,14.07,0,0,0-2.3-1,17.22,17.22,0,0,0-5.47-.93c-3.29,0-4.94,1.09-4.94,3.25a4.06,4.06,0,0,0,.89,2.52,43.93,43.93,0,0,0,6.22,5.79,98.39,98.39,0,0,1,7.43,6.58,32.2,32.2,0,0,1,4.26,5.08,13.24,13.24,0,0,1,2.32,7.37,14.37,14.37,0,0,1-1.34,6.5,13.84,13.84,0,0,1-3.76,4.6,19.82,19.82,0,0,1-12.67,4A25,25,0,0,1,105.55,48.89Z"/></g><g class="cls-1"><path class="cls-2" d="M39.19,78l3,.13a14.29,14.29,0,0,0,10.62-4.25A15.71,15.71,0,0,0,57.2,62.76q.36-10.48-10.08-14.16a30.91,30.91,0,0,0-10.18-1.39H34.15v44.5H17.24V44.78h12.7q10.27,0,12.4.3c1.42.2,2.9.46,4.43.77a16.45,16.45,0,0,1,5,2,17.81,17.81,0,0,1,4.52,3.71,14.77,14.77,0,0,1,3.62,10.28A19.75,19.75,0,0,1,55.48,74.4a18.7,18.7,0,0,1-11.81,6.23,27,27,0,0,1-3.45.3c-2,0-3-.54-3-1.62a1.14,1.14,0,0,1,.53-1A2.34,2.34,0,0,1,39.19,78Z"/><path class="cls-2" d="M72.45,85.72A23.77,23.77,0,0,1,67.23,78,25.19,25.19,0,0,1,65.29,68a24.46,24.46,0,0,1,1.84-9.68,22.86,22.86,0,0,1,5.09-7.44q7-6.7,17.48-6.7t17.11,6.6q6.76,6.69,6.76,17.37t-6.93,17.51A23.13,23.13,0,0,1,96,91.54a30.08,30.08,0,0,1-7.32.8,23.32,23.32,0,0,1-8.53-1.71A22.6,22.6,0,0,1,72.45,85.72ZM89.67,46.61a21.6,21.6,0,0,0-3.42.26V89.65a19.77,19.77,0,0,0,3.42.27A20.57,20.57,0,0,0,104.59,84q6.33-6.14,6.33-15.85A21.26,21.26,0,0,0,105,52.78,20.43,20.43,0,0,0,89.67,46.61Z"/><path class="cls-2" d="M145.38,75.62l2.72.2A13.49,13.49,0,0,0,158,71.74a13.75,13.75,0,0,0,4.08-10.14,12.62,12.62,0,0,0-7-11.81,20,20,0,0,0-8.22-2.45c-1.24-.11-2.39-.17-3.45-.17h-2.26c-.46,0-.87,0-1.22,0v44.5H123V44.78h12.56c3.21,0,5.3,0,6.27,0l2.6.08c.77,0,1.48.07,2.14.12,1,.09,2.35.3,4.13.63A18.39,18.39,0,0,1,156,47.54,16.72,16.72,0,0,1,160.53,51a14.72,14.72,0,0,1,4.08,10.41,16.06,16.06,0,0,1-3.78,10.54,17.73,17.73,0,0,1-10.35,6q3.09,9.55,7.86,11.41a8.17,8.17,0,0,0,2.92.56l2.62-.63a1.1,1.1,0,0,1,1.23,1.26c0,1.17-1.37,1.76-4.12,1.76a9.62,9.62,0,0,1-5.47-1.66q-3.87-2.33-6.6-9l-1-2.35a1.73,1.73,0,0,0-.41-.7,1.1,1.1,0,0,0-.63-.13,4.42,4.42,0,0,0-.78.06l-.8,0a2.5,2.5,0,0,1-1.8-.5,1.49,1.49,0,0,1-.48-1C143.06,76.1,143.83,75.62,145.38,75.62Z"/><path class="cls-2" d="M206.86,45.65c0,1-1.08,1.52-3.22,1.52H196V91.71H179V47.17h-5a17.94,17.94,0,0,0-3.51.23,10,10,0,0,1-1.82.27c-1.13,0-1.7-.44-1.7-1.33,0-1,1.1-1.56,3.29-1.56h29.58a21.32,21.32,0,0,0,3.38-.19,12.27,12.27,0,0,1,2-.24C206.31,44.35,206.86,44.78,206.86,45.65Z"/><path class="cls-2" d="M216.71,71.45l-3.65.2a2.11,2.11,0,0,1-1.31-.4,1.26,1.26,0,0,1-.51-1c0-1,.6-1.46,1.82-1.46l4.74.3h3.48l5.28-.3c1.26,0,1.88.48,1.88,1.44s-.67,1.45-2,1.45c-.37,0-.73,0-1.06,0l-1-.06a24.87,24.87,0,0,0-2.65-.1Z"/></g><g class="cls-1"><path class="cls-2" d="M29.68,102l-1.36,0c-.49,0-1.11-.07-1.86-.07H19v30.21H2.12V85.21H28.45l3.28-.1h.6c1.66,0,2.49.49,2.49,1.46a1.48,1.48,0,0,1-.45,1,1.3,1.3,0,0,1-1,.48,8.2,8.2,0,0,1-1.66-.16,19.39,19.39,0,0,0-4-.33H19V99.54H25.7l4.11-.17c1.19,0,1.79.44,1.79,1.33S31,102,29.68,102Z"/><path class="cls-2" d="M45.43,126.15a23.57,23.57,0,0,1-5.22-7.76,25,25,0,0,1-1.94-10,24.29,24.29,0,0,1,1.84-9.68,22.49,22.49,0,0,1,5.09-7.45,24.22,24.22,0,0,1,17.47-6.7q10.45,0,17.11,6.6t6.77,17.38q0,10.64-6.93,17.51A23.31,23.31,0,0,1,68.94,132a30.08,30.08,0,0,1-7.31.79,23.56,23.56,0,0,1-8.54-1.7A22.71,22.71,0,0,1,45.43,126.15ZM62.64,87a20.53,20.53,0,0,0-3.42.27v42.78a20.88,20.88,0,0,0,3.42.26,20.59,20.59,0,0,0,14.92-5.9q6.33-6.14,6.34-15.85A21.24,21.24,0,0,0,78,93.2,20.46,20.46,0,0,0,62.64,87Z"/><path class="cls-2" d="M124.42,129.12c1.17,0,1.76.49,1.76,1.49a1.29,1.29,0,0,1-.72,1.06,4.93,4.93,0,0,1-2.53.46H96V85.21h16.91v44.73h6.2a13.56,13.56,0,0,0,3.6-.41A13,13,0,0,1,124.42,129.12Z"/><path class="cls-2" d="M132,85.21h16.91v46.92H132Z"/><path class="cls-2" d="M164.91,126.15a23.57,23.57,0,0,1-5.22-7.76,25.05,25.05,0,0,1-1.95-10,24.29,24.29,0,0,1,1.85-9.68,22.49,22.49,0,0,1,5.09-7.45q7-6.69,17.47-6.7t17.11,6.6Q206,97.92,206,108.59T199.1,126.1A23.31,23.31,0,0,1,188.42,132a30.08,30.08,0,0,1-7.31.79,23.56,23.56,0,0,1-8.54-1.7A22.71,22.71,0,0,1,164.91,126.15ZM182.12,87a20.44,20.44,0,0,0-3.42.27v42.78a20.88,20.88,0,0,0,3.42.26,20.59,20.59,0,0,0,14.92-5.9q6.35-6.14,6.33-15.85a21.23,21.23,0,0,0-5.93-15.39A20.46,20.46,0,0,0,182.12,87Z"/></g></g></svg>