<svg id="Layer_1" data-name="Layer 1" xmlns="http://www.w3.org/2000/svg" width="260" height="70" viewBox="0 0 260 70"><defs><style>.cls-1{isolation:isolate;}.cls-2{fill:#fde358;}</style></defs><g id="EMS_PORTFOLIO" data-name="EMS PORTFOLIO" class="cls-1"><g class="cls-1"><path class="cls-2" d="M19.63,35.71c.69,0,1,.27,1,.82a.8.8,0,0,1-.45.65,3,3,0,0,1-1.56.29H1.29v-29H17.45l1.68-.06c1,0,1.54.3,1.54.9a1,1,0,0,1-.25.65.76.76,0,0,1-.59.3,5.16,5.16,0,0,1-1.13-.13,12.62,12.62,0,0,0-2.42-.18H11.75v6.25h3.73l2.53-.1a1.32,1.32,0,0,1,.77.22.67.67,0,0,1,.31.6c0,.58-.38.86-1.14.86l-.89,0c-.45,0-.82-.06-1.12-.06H11.75V36h4.53a13.31,13.31,0,0,0,2.16-.12A6.29,6.29,0,0,1,19.63,35.71Z"/><path class="cls-2" d="M23,37.43a1,1,0,0,1-.16-.68,3.37,3.37,0,0,1,.39-1.17c.19-.35.33-.62.42-.8s.18-.37.27-.59l.78-1.81L33.12,7.14l9.07,17.51L51,7.14,61.5,37.47h-11L45.41,21.8,37.53,38.21,29.25,23.44l-2.88,9a17.32,17.32,0,0,0-1,2.54c-.19.7-.35,1.24-.47,1.62-.27.86-.73,1.26-1.36,1.21A.81.81,0,0,1,23,37.43Z"/><path class="cls-2" d="M65.61,36a7.8,7.8,0,0,1-1.25-.86,1.3,1.3,0,0,1-.52-1q0-1,.84-1a1.94,1.94,0,0,1,1.23.62,8,8,0,0,0,1.52,1.08,11.73,11.73,0,0,0,1.83.79,11.9,11.9,0,0,0,3.75.67,12.13,12.13,0,0,0,2.66-.22,5.35,5.35,0,0,0,1.56-.62,2.47,2.47,0,0,0,1.36-2.15,3.59,3.59,0,0,0-1.17-2.44,29,29,0,0,0-2.79-2.5l-3.51-2.75q-5.27-4.07-6.21-7.43a9.48,9.48,0,0,1-.33-2.6,6.68,6.68,0,0,1,.65-2.83,7,7,0,0,1,1.91-2.44,11.24,11.24,0,0,1,7.43-2.28,12.31,12.31,0,0,1,4.3.71,10.31,10.31,0,0,1,2.61,1.26c.46.37.7.71.7,1,0,.63-.26.94-.78.94a1.52,1.52,0,0,1-1-.45,5.78,5.78,0,0,0-1.14-.79,8.53,8.53,0,0,0-1.42-.61,10.75,10.75,0,0,0-3.38-.57q-3.06,0-3.06,2A2.5,2.5,0,0,0,72,13.15a27.36,27.36,0,0,0,3.85,3.58,58.49,58.49,0,0,1,4.59,4.07,19.85,19.85,0,0,1,2.64,3.14,8.25,8.25,0,0,1,1.43,4.56,8.79,8.79,0,0,1-.83,4,8.36,8.36,0,0,1-2.33,2.84,12.18,12.18,0,0,1-7.83,2.5A15.41,15.41,0,0,1,65.61,36Z"/></g><g class="cls-1"><path class="cls-2" d="M24.57,54l1.82.08A8.83,8.83,0,0,0,33,51.42a9.79,9.79,0,0,0,2.75-6.85q.23-6.48-6.24-8.76a19.25,19.25,0,0,0-6.3-.86H21.45V62.47H11v-29h7.86c4.24,0,6.79.06,7.67.19s1.79.28,2.73.47a10.13,10.13,0,0,1,3.08,1.25,10.77,10.77,0,0,1,2.8,2.3A9.12,9.12,0,0,1,37.37,44a12.2,12.2,0,0,1-2.73,7.76,11.59,11.59,0,0,1-7.3,3.85,17.62,17.62,0,0,1-2.13.19c-1.24,0-1.85-.34-1.85-1a.69.69,0,0,1,.33-.6A1.46,1.46,0,0,1,24.57,54Z"/><path class="cls-2" d="M45.14,58.77A14.65,14.65,0,0,1,41.91,54a15.54,15.54,0,0,1-1.2-6.15,15.05,15.05,0,0,1,1.14-6A14,14,0,0,1,45,37.23a14.93,14.93,0,0,1,10.8-4.15A14.17,14.17,0,0,1,70.57,47.91a14.59,14.59,0,0,1-4.29,10.83,14.34,14.34,0,0,1-6.6,3.63,18.51,18.51,0,0,1-4.52.49,14.32,14.32,0,0,1-5.28-1.06A13.84,13.84,0,0,1,45.14,58.77ZM55.78,34.58a12.82,12.82,0,0,0-2.11.16V61.2a12.32,12.32,0,0,0,2.11.16A12.7,12.7,0,0,0,65,57.71a13,13,0,0,0,3.92-9.8,13.18,13.18,0,0,0-3.67-9.52A12.68,12.68,0,0,0,55.78,34.58Z"/><path class="cls-2" d="M90.24,52.52l1.68.13a8.32,8.32,0,0,0,6.13-2.53,8.51,8.51,0,0,0,2.52-6.27,7.79,7.79,0,0,0-4.33-7.3A12.28,12.28,0,0,0,91.16,35c-.77-.07-1.48-.1-2.13-.1h-1.4l-.76,0V62.47H76.41v-29h7.78c2,0,3.27,0,3.87,0l1.61.05L91,33.6c.61,0,1.46.18,2.56.39a11.35,11.35,0,0,1,3.27,1.16,10.46,10.46,0,0,1,2.79,2.14,9.12,9.12,0,0,1,2.52,6.44,9.94,9.94,0,0,1-2.34,6.52A10.94,10.94,0,0,1,93.39,54q1.92,5.91,4.86,7.06a5.08,5.08,0,0,0,1.81.34l1.62-.39a.68.68,0,0,1,.76.78c0,.73-.85,1.09-2.55,1.09a5.93,5.93,0,0,1-3.38-1q-2.4-1.42-4.08-5.57l-.6-1.46a1.07,1.07,0,0,0-.25-.43.76.76,0,0,0-.39-.08,2.21,2.21,0,0,0-.48,0l-.5,0A1.52,1.52,0,0,1,89.1,54a.91.91,0,0,1-.3-.63C88.8,52.82,89.28,52.52,90.24,52.52Z"/><path class="cls-2" d="M128.26,34c0,.62-.67.94-2,.94h-4.76V62.47H111V34.93h-3.08a11.41,11.41,0,0,0-2.17.14,6.38,6.38,0,0,1-1.13.17c-.7,0-1-.28-1-.82s.67-1,2-1h18.29a13.15,13.15,0,0,0,2.09-.12,7.33,7.33,0,0,1,1.23-.14C127.92,33.19,128.26,33.45,128.26,34Z"/><path class="cls-2" d="M149.65,43.85l-.84,0c-.31,0-.69,0-1.15,0h-4.6V62.47H132.6v-29h16.29l2-.06h.37c1,0,1.54.3,1.54.9a1,1,0,0,1-.28.65.83.83,0,0,1-.61.3,4.9,4.9,0,0,1-1-.11,12.53,12.53,0,0,0-2.46-.2h-5.4v7.38h4.13l2.54-.1c.74,0,1.11.27,1.11.82S150.44,43.85,149.65,43.85Z"/><path class="cls-2" d="M159.39,58.77a14.5,14.5,0,0,1-3.23-4.8,15.54,15.54,0,0,1-1.2-6.15,15.05,15.05,0,0,1,1.14-6,13.78,13.78,0,0,1,3.14-4.6,15,15,0,0,1,10.81-4.15,14.17,14.17,0,0,1,14.77,14.83,14.59,14.59,0,0,1-4.29,10.83,14.34,14.34,0,0,1-6.6,3.63,18.51,18.51,0,0,1-4.52.49,14.41,14.41,0,0,1-5.29-1.06A13.9,13.9,0,0,1,159.39,58.77ZM170,34.58a12.82,12.82,0,0,0-2.11.16V61.2a12.32,12.32,0,0,0,2.11.16,12.7,12.7,0,0,0,9.23-3.65,13,13,0,0,0,3.92-9.8,13.18,13.18,0,0,0-3.67-9.52A12.68,12.68,0,0,0,170,34.58Z"/><path class="cls-2" d="M208.24,60.6q1.08,0,1.08.93a.79.79,0,0,1-.44.65,3,3,0,0,1-1.57.29H190.66v-29h10.46V61.12H205a8.46,8.46,0,0,0,2.22-.26A9.26,9.26,0,0,1,208.24,60.6Z"/><path class="cls-2" d="M212.89,33.45h10.46v29H212.89Z"/><path class="cls-2" d="M233.28,58.77a14.5,14.5,0,0,1-3.23-4.8,15.54,15.54,0,0,1-1.2-6.15,15.05,15.05,0,0,1,1.14-6,13.93,13.93,0,0,1,3.14-4.6,15,15,0,0,1,10.81-4.15,14.17,14.17,0,0,1,14.77,14.83,14.59,14.59,0,0,1-4.29,10.83,14.34,14.34,0,0,1-6.6,3.63,18.51,18.51,0,0,1-4.52.49A14.41,14.41,0,0,1,238,61.8,13.9,13.9,0,0,1,233.28,58.77Zm10.64-24.19a12.74,12.74,0,0,0-2.11.16V61.2a12.32,12.32,0,0,0,2.11.16,12.7,12.7,0,0,0,9.23-3.65,13,13,0,0,0,3.92-9.8,13.18,13.18,0,0,0-3.67-9.52A12.68,12.68,0,0,0,243.92,34.58Z"/></g></g></svg>