<svg id="Layer_1" data-name="Layer 1" xmlns="http://www.w3.org/2000/svg" width="130" height="130" viewBox="0 0 130 130"><defs><style>.cls-1{fill:#171329;}.cls-2{fill:#fde359;}</style></defs><rect class="cls-1" width="129.63" height="129.63"/><path class="cls-2" d="M55.58,76.73c1.79,0,2.69.71,2.69,2.11a2.07,2.07,0,0,1-1.16,1.69,7.92,7.92,0,0,1-4,.74H8.44V6.65H50l4.33-.16q3.95,0,4,2.32a2.49,2.49,0,0,1-.66,1.66,2,2,0,0,1-1.5.77,14.37,14.37,0,0,1-2.9-.32A31.67,31.67,0,0,0,47,10.45H35.33V26.53h9.6l6.49-.26a3.41,3.41,0,0,1,2,.55,1.77,1.77,0,0,1,.82,1.55c0,1.48-1,2.22-3,2.22L49,30.54c-1.16-.11-2.13-.16-2.9-.16H35.33v47H47a33.1,33.1,0,0,0,5.53-.32A18.17,18.17,0,0,1,55.58,76.73Z"/><path class="cls-2" d="M94.29,97.53l4.7.21q10.23,0,16.87-6.75t7.07-17.61q.57-16.66-16-22.52-6.23-2.2-16.19-2.21H86.28v70.77H59.38V44.8h20.2q16.35,0,19.72.47c2.25.32,4.6.72,7,1.22a26.22,26.22,0,0,1,7.91,3.21,28.19,28.19,0,0,1,7.2,5.91A23.51,23.51,0,0,1,127.2,72q-.32,12-7,19.93t-18.77,9.91a42.62,42.62,0,0,1-5.48.48q-4.75,0-4.75-2.58A1.84,1.84,0,0,1,92,98.14,3.86,3.86,0,0,1,94.29,97.53Z"/></svg>