<?xml version="1.0" encoding="utf-8"?>
<!-- Generator: Adobe Illustrator 25.4.1, SVG Export Plug-In . SVG Version: 6.00 Build 0)  -->
<svg version="1.1" id="Layer_1" xmlns="http://www.w3.org/2000/svg" xmlns:xlink="http://www.w3.org/1999/xlink" x="0px" y="0px"
	 viewBox="0 0 40 85" style="enable-background:new 0 0 40 85;" xml:space="preserve">
<style type="text/css">
	.st0{fill:none;stroke:#CFAF5A;stroke-width:3;stroke-miterlimit:10;}
</style>
<path class="st0" d="M38.3,22.3C38.3,12.2,30.1,4,20,4S1.6,12.2,1.6,22.3C1.7,32.5,20,63.6,20,63.6S38.3,32.5,38.3,22.3z"/>
<path class="st0" d="M33,29.9c0-7.2-5.8-13-13-13s-13,5.8-13,13C7,37,20,59.1,20,59.1S33,37,33,29.9z"/>
<path class="st0" d="M29.5,57.7c0-5.2-4.2-9.5-9.5-9.5c-5.2,0-9.5,4.2-9.5,9.5C10.5,62.9,20,79,20,79S29.5,62.9,29.5,57.7z"/>
</svg>
