<?xml version="1.0" encoding="utf-8"?>
<!-- Generator: Adobe Illustrator 25.4.1, SVG Export Plug-In . SVG Version: 6.00 Build 0)  -->
<svg version="1.1" id="Layer_1" xmlns="http://www.w3.org/2000/svg" xmlns:xlink="http://www.w3.org/1999/xlink" x="0px" y="0px"
	 viewBox="0 0 19 19" style="enable-background:new 0 0 19 19;" xml:space="preserve">
<style type="text/css">
	.st0{fill:#CFAF5A;}
</style>
<path id="close" class="st0" d="M12.8,9.5l5.4-5.4C19,3.3,19,1.9,18.2,1c0,0-0.1-0.1-0.1-0.1C17.3,0,15.8,0,14.9,0.8
	c0,0-0.1,0.1-0.1,0.1L9.5,6.2L4.1,0.9C3.3,0,1.9,0,1,0.8c0,0-0.1,0.1-0.1,0.1C0,1.7,0,3.2,0.8,4.1c0,0,0.1,0.1,0.1,0.1l5.4,5.4
	l-5.4,5.4C0,15.7,0,17.1,0.8,18c0,0,0.1,0.1,0.1,0.1c0.4,0.5,1,0.7,1.6,0.7c0.6,0,1.2-0.2,1.6-0.7l5.4-5.4l5.4,5.4
	c0.9,0.9,2.3,0.9,3.2,0.1c0,0,0.1-0.1,0.1-0.1c0.9-0.9,0.9-2.3,0.1-3.2c0,0-0.1-0.1-0.1-0.1L12.8,9.5z"/>
</svg>
