<svg id="Layer_1" data-name="Layer 1" xmlns="http://www.w3.org/2000/svg" width="200" height="130" viewBox="0 0 200 130"><defs><style>.cls-1{fill:#cfaf5a;}.cls-2{fill:#c73086;}</style></defs><polygon class="cls-1" points="79.63 109.77 86.44 116.58 79.63 123.39 3.52 116.58 79.63 109.77"/><polygon class="cls-1" points="120.37 109.77 113.56 116.58 120.37 123.39 196.48 116.58 120.37 109.77"/><polygon class="cls-1" points="83.63 98.05 86.44 104.53 79.96 107.34 32.31 81.54 83.63 98.05"/><path class="cls-1" d="M126.55,22.64,104.46,92.05l36.16-50.63A38.3,38.3,0,0,0,126.55,22.64Z"/><path class="cls-1" d="M74,22.64,96.05,92.05,59.89,41.42A38.3,38.3,0,0,1,74,22.64Z"/><path class="cls-1" d="M141.66,49.29a38.26,38.26,0,0,1,2.06,12.4c0,.28,0,.55,0,.82a29.31,29.31,0,0,1-15.45,25.05L105.5,99.91Z"/><path class="cls-1" d="M58.34,49.29a38.26,38.26,0,0,0-2.06,12.4c0,.28,0,.55,0,.82A29.31,29.31,0,0,0,71.74,87.56L94.5,99.91Z"/><polygon class="cls-2" points="110.16 31.73 100.05 41.83 89.94 31.73 100.05 3.45 110.16 31.73"/><path class="cls-1" d="M84,33.17l9.3-26A38,38,0,0,0,75.39,14l22.1,69.41V46.69Z"/><path class="cls-1" d="M116,33.17l-9.3-26A38,38,0,0,1,124.61,14l-22.1,69.41V46.69Z"/><rect class="cls-2" x="93" y="109.53" width="14.1" height="14.1" transform="translate(-53.13 104.89) rotate(-45)"/><rect class="cls-1" x="55.45" y="100.98" width="7.85" height="7.85" transform="translate(-56.78 72.71) rotate(-45)"/><rect class="cls-1" x="43.89" y="101.37" width="7.05" height="7.05" transform="translate(-60.29 64.25) rotate(-45)"/><rect class="cls-1" x="33.61" y="101.94" width="6.09" height="6.09" transform="translate(-63.5 56.67) rotate(-45)"/><rect class="cls-1" x="25.46" y="102.81" width="3.95" height="3.95" transform="translate(-66.06 50.09) rotate(-45)"/><polygon class="cls-1" points="117.18 96.51 114.37 102.99 120.85 105.8 168.5 80 117.18 96.51"/><rect class="cls-1" x="137.51" y="99.44" width="7.85" height="7.85" transform="translate(168.36 276.45) rotate(-135)"/><rect class="cls-1" x="149.87" y="99.83" width="7.05" height="7.05" transform="translate(188.78 284.91) rotate(-135)"/><rect class="cls-1" x="161.1" y="100.4" width="6.09" height="6.09" transform="translate(207.07 292.67) rotate(-135)"/><rect class="cls-1" x="171.4" y="101.27" width="3.95" height="3.95" transform="translate(222.96 298.84) rotate(-135)"/></svg>